<svg t="1592123793523" class="icon" viewBox="0 0 1024 1024" version="1.1" xmlns="http://www.w3.org/2000/svg" p-id="3921" width="200" height="200"><path d="M512 938.666667l-9.472-0.085334-14.848-0.597333-10.112-0.682667a427.818667 427.818667 0 0 1-28.117333-3.2l-19.328-3.285333-17.322667-3.754667-15.018667-3.84-13.397333-3.968-17.066667-5.76a423.978667 423.978667 0 0 1-26.496-10.538666l-14.890666-6.869334a425.642667 425.642667 0 0 1-52.181334-30.08l-12.245333-8.576a428.330667 428.330667 0 0 1-30.506667-24.362666l-13.226666-12.074667-13.653334-13.568-8.192-8.832-3.541333-3.925333c-7.253333-8.149333-14.08-16.597333-20.693333-25.258667l-10.965334-15.189333-1.365333-1.92a426.581333 426.581333 0 0 1-23.722667-39.168l-8.277333-16.256-5.845333-12.629334-5.376-12.8a423.850667 423.850667 0 0 1-8.490667-22.869333l-4.821333-15.274667-4.010667-14.464a424.746667 424.746667 0 0 1-9.557333-48.810666l-2.048-17.749334-1.109334-14.378666C85.589333 529.365333 85.333333 520.704 85.333333 512 85.333333 276.352 276.352 85.333333 512 85.333333s426.666667 191.018667 426.666667 426.666667l-0.213334 13.013333-0.938666 18.517334-1.450667 16-1.28 10.496c-2.304 16.554667-5.504 32.853333-9.6 48.810666l-4.010667 14.421334-1.066666 3.669333a423.509333 423.509333 0 0 1-7.850667 23.168l-5.461333 14.037333-4.309334 10.112-7.125333 15.274667a425.941333 425.941333 0 0 1-22.357333 40.021333l-9.728 14.677334-1.322667 1.962666c-9.386667 13.397333-19.541333 26.24-30.336 38.485334l-11.776 12.757333-8.405333 8.533333-9.472 9.045334c-5.888 5.461333-11.946667 10.752-18.090667 15.872l-11.306667 9.002666-10.069333 7.552a426.538667 426.538667 0 0 1-51.029333 31.829334l-15.36 7.765333c-8.533333 4.096-17.237333 7.893333-26.026667 11.392l-17.194667 6.442667-13.226666 4.394666-18.517334 5.333334-13.482666 3.328-13.781334 2.901333-19.328 3.285333-13.952 1.834667-18.944 1.706667-17.706666 0.853333L512 938.666667z m-42.666667-341.333334H409.685333a128 128 0 0 0-125.44 102.4l-1.28 7.509334-10.965333 76.672A361.301333 361.301333 0 0 0 512 874.666667a361.301333 361.301333 0 0 0 240-90.752l-10.965333-76.672a128 128 0 0 0-119.125334-109.653334L614.314667 597.333333H554.666667l-21.333334 42.666667h-42.666666l-21.333334-42.666667z m64 64L554.666667 810.666667l-42.666667 21.333333-42.666667-21.333333 21.333334-149.333334h42.666666zM501.333333 256H426.666667a42.666667 42.666667 0 0 0-42.666667 42.666667v106.666666a128 128 0 0 0 255.786667 7.509334L640 405.333333v-10.666666A138.666667 138.666667 0 0 0 501.333333 256z" p-id="3922"></path></svg>